<svg width="480" height="240" viewBox="0 0 480 240" fill="none" xmlns="http://www.w3.org/2000/svg">
<g clip-path="url(#clip0_1893_166)">
<path d="M460 0H20C8.9543 0 0 8.9543 0 20V220C0 231.046 8.9543 240 20 240H460C471.046 240 480 231.046 480 220V20C480 8.9543 471.046 0 460 0Z" fill="url(#paint0_linear_1893_166)"/>
<path d="M0 205L192 13M80 240L316 4M206 240L442 4M340 240L480 100" stroke="#7DD3FC" stroke-opacity="0.1"/>
<path d="M157.835 25H37.1655C29.3421 25 23 31.0442 23 38.5C23 45.9558 29.3421 52 37.1655 52H157.835C165.658 52 172 45.9558 172 38.5C172 31.0442 165.658 25 157.835 25Z" fill="#0EA5E9" fill-opacity="0.17" stroke="#7DD3FC" stroke-opacity="0.45"/>
<path d="M39.9839 43V35H43.187C43.7756 35 44.2664 35.0872 44.6597 35.2617C45.0529 35.4362 45.3485 35.6784 45.5464 35.9883C45.7443 36.2956 45.8433 36.6497 45.8433 37.0508C45.8433 37.3633 45.7808 37.638 45.6558 37.875C45.5308 38.1094 45.3589 38.3021 45.1401 38.4531C44.924 38.6016 44.6766 38.707 44.3979 38.7695V38.8477C44.7026 38.8607 44.9878 38.9466 45.2534 39.1055C45.5216 39.2643 45.7391 39.487 45.9058 39.7734C46.0724 40.0573 46.1558 40.3958 46.1558 40.7891C46.1558 41.2135 46.0503 41.5924 45.8394 41.9258C45.631 42.2565 45.3224 42.5182 44.9136 42.7109C44.5047 42.9036 44.0008 43 43.4019 43H39.9839ZM41.6753 41.6172H43.0542C43.5256 41.6172 43.8693 41.5273 44.0854 41.3477C44.3016 41.1654 44.4097 40.9232 44.4097 40.6211C44.4097 40.3997 44.3563 40.2044 44.2495 40.0352C44.1427 39.8659 43.9904 39.7331 43.7925 39.6367C43.5972 39.5404 43.3641 39.4922 43.0933 39.4922H41.6753V41.6172ZM41.6753 38.3477H42.9292C43.161 38.3477 43.3667 38.3073 43.5464 38.2266C43.7287 38.1432 43.8719 38.026 43.9761 37.875C44.0828 37.724 44.1362 37.543 44.1362 37.332C44.1362 37.043 44.0334 36.8099 43.8276 36.6328C43.6245 36.4557 43.3354 36.3672 42.9604 36.3672H41.6753V38.3477ZM47.2563 43V35H48.9478V41.6055H52.3774V43H47.2563ZM58.439 35H60.1304V40.1953C60.1304 40.7786 59.991 41.2891 59.7124 41.7266C59.4364 42.1641 59.0496 42.5052 58.5522 42.75C58.0549 42.9922 57.4754 43.1133 56.814 43.1133C56.1499 43.1133 55.5692 42.9922 55.0718 42.75C54.5744 42.5052 54.1877 42.1641 53.9116 41.7266C53.6356 41.2891 53.4976 40.7786 53.4976 40.1953V35H55.189V40.0508C55.189 40.3555 55.2554 40.6263 55.3882 40.8633C55.5236 41.1003 55.7137 41.2865 55.9585 41.4219C56.2033 41.5573 56.4884 41.625 56.814 41.625C57.1421 41.625 57.4272 41.5573 57.6694 41.4219C57.9142 41.2865 58.103 41.1003 58.2358 40.8633C58.3713 40.6263 58.439 40.3555 58.439 40.0508V35ZM61.522 43V35H66.9126V36.3945H63.2134V38.3008H66.6353V39.6953H63.2134V41.6055H66.9282V43H61.522ZM68.2573 43V35H71.4136C72.0203 35 72.5373 35.1159 72.9644 35.3477C73.3914 35.5768 73.717 35.8958 73.9409 36.3047C74.1675 36.7109 74.2808 37.1797 74.2808 37.7109C74.2808 38.2422 74.1662 38.7109 73.937 39.1172C73.7078 39.5234 73.3758 39.8398 72.9409 40.0664C72.5086 40.293 71.9852 40.4062 71.3706 40.4062H69.3589V39.0508H71.0972C71.4227 39.0508 71.6909 38.9948 71.9019 38.8828C72.1154 38.7682 72.2743 38.6107 72.3784 38.4102C72.4852 38.207 72.5386 37.974 72.5386 37.7109C72.5386 37.4453 72.4852 37.2135 72.3784 37.0156C72.2743 36.8151 72.1154 36.6602 71.9019 36.5508C71.6883 36.4388 71.4175 36.3828 71.0894 36.3828H69.9487V43H68.2573ZM75.3794 43V35H78.5356C79.1398 35 79.6554 35.1081 80.0825 35.3242C80.5122 35.5378 80.839 35.8411 81.063 36.2344C81.2896 36.625 81.4028 37.0846 81.4028 37.6133C81.4028 38.1445 81.2882 38.6016 81.0591 38.9844C80.8299 39.3646 80.4979 39.6562 80.063 39.8594C79.6307 40.0625 79.1073 40.1641 78.4927 40.1641H76.3794V38.8047H78.2192C78.5422 38.8047 78.8104 38.7604 79.0239 38.6719C79.2375 38.5833 79.3963 38.4505 79.5005 38.2734C79.6073 38.0964 79.6606 37.8763 79.6606 37.6133C79.6606 37.3477 79.6073 37.1237 79.5005 36.9414C79.3963 36.7591 79.2362 36.6211 79.02 36.5273C78.8065 36.431 78.5369 36.3828 78.2114 36.3828H77.0708V43H75.3794ZM79.6997 39.3594L81.688 43H79.8208L77.8755 39.3594H79.6997ZM84.2896 35V43H82.5981V35H84.2896ZM92.3726 35V43H90.9116L87.4312 37.9648H87.3726V43H85.6812V35H87.1655L90.6187 40.0312H90.689V35H92.3726ZM93.4653 36.3945V35H100.036V36.3945H97.5864V43H95.9146V36.3945H93.4653ZM108.003 37.3008C107.972 36.9857 107.838 36.7409 107.601 36.5664C107.364 36.3919 107.042 36.3047 106.636 36.3047C106.36 36.3047 106.127 36.3437 105.937 36.4219C105.747 36.4974 105.601 36.6029 105.5 36.7383C105.401 36.8737 105.351 37.0273 105.351 37.1992C105.346 37.3424 105.376 37.4674 105.441 37.5742C105.509 37.681 105.601 37.7734 105.718 37.8516C105.835 37.9271 105.971 37.9935 106.125 38.0508C106.278 38.1055 106.442 38.1523 106.617 38.1914L107.335 38.3633C107.684 38.4414 108.005 38.5456 108.296 38.6758C108.588 38.806 108.841 38.9661 109.054 39.1562C109.268 39.3464 109.433 39.5703 109.55 39.8281C109.67 40.0859 109.731 40.3815 109.734 40.7148C109.731 41.2044 109.606 41.6289 109.359 41.9883C109.114 42.3451 108.76 42.6224 108.296 42.8203C107.835 43.0156 107.279 43.1133 106.628 43.1133C105.983 43.1133 105.42 43.0143 104.941 42.8164C104.464 42.6185 104.092 42.3255 103.824 41.9375C103.558 41.5469 103.419 41.0638 103.406 40.4883H105.042C105.061 40.7565 105.138 40.9805 105.273 41.1602C105.411 41.3372 105.595 41.4714 105.824 41.5625C106.056 41.651 106.317 41.6953 106.609 41.6953C106.895 41.6953 107.144 41.6536 107.355 41.5703C107.569 41.487 107.734 41.3711 107.851 41.2227C107.968 41.0742 108.027 40.9036 108.027 40.7109C108.027 40.5312 107.973 40.3802 107.867 40.2578C107.763 40.1354 107.609 40.0312 107.406 39.9453C107.205 39.8594 106.959 39.7812 106.667 39.7109L105.796 39.4922C105.122 39.3281 104.589 39.0716 104.199 38.7227C103.808 38.3737 103.614 37.9036 103.617 37.3125C103.614 36.8281 103.743 36.4049 104.003 36.043C104.266 35.681 104.627 35.3984 105.085 35.1953C105.544 34.9922 106.065 34.8906 106.648 34.8906C107.242 34.8906 107.76 34.9922 108.203 35.1953C108.648 35.3984 108.994 35.681 109.242 36.043C109.489 36.4049 109.617 36.8242 109.625 37.3008H108.003ZM110.403 35H112.297L114.122 38.4453H114.2L116.024 35H117.918L115 40.1719V43H113.321V40.1719L110.403 35ZM123.182 37.3008C123.151 36.9857 123.017 36.7409 122.78 36.5664C122.543 36.3919 122.221 36.3047 121.815 36.3047C121.539 36.3047 121.306 36.3437 121.116 36.4219C120.926 36.4974 120.78 36.6029 120.678 36.7383C120.579 36.8737 120.53 37.0273 120.53 37.1992C120.525 37.3424 120.555 37.4674 120.62 37.5742C120.687 37.681 120.78 37.7734 120.897 37.8516C121.014 37.9271 121.15 37.9935 121.303 38.0508C121.457 38.1055 121.621 38.1523 121.795 38.1914L122.514 38.3633C122.863 38.4414 123.183 38.5456 123.475 38.6758C123.767 38.806 124.019 38.9661 124.233 39.1562C124.446 39.3464 124.612 39.5703 124.729 39.8281C124.849 40.0859 124.91 40.3815 124.913 40.7148C124.91 41.2044 124.785 41.6289 124.538 41.9883C124.293 42.3451 123.939 42.6224 123.475 42.8203C123.014 43.0156 122.458 43.1133 121.807 43.1133C121.161 43.1133 120.599 43.0143 120.12 42.8164C119.643 42.6185 119.271 42.3255 119.002 41.9375C118.737 41.5469 118.597 41.0638 118.584 40.4883H120.221C120.239 40.7565 120.316 40.9805 120.452 41.1602C120.59 41.3372 120.773 41.4714 121.002 41.5625C121.234 41.651 121.496 41.6953 121.788 41.6953C122.074 41.6953 122.323 41.6536 122.534 41.5703C122.747 41.487 122.913 41.3711 123.03 41.2227C123.147 41.0742 123.206 40.9036 123.206 40.7109C123.206 40.5312 123.152 40.3802 123.045 40.2578C122.941 40.1354 122.788 40.0312 122.584 39.9453C122.384 39.8594 122.138 39.7812 121.846 39.7109L120.975 39.4922C120.301 39.3281 119.768 39.0716 119.377 38.7227C118.987 38.3737 118.793 37.9036 118.795 37.3125C118.793 36.8281 118.922 36.4049 119.182 36.043C119.445 35.681 119.806 35.3984 120.264 35.1953C120.722 34.9922 121.243 34.8906 121.827 34.8906C122.42 34.8906 122.939 34.9922 123.381 35.1953C123.827 35.3984 124.173 35.681 124.42 36.043C124.668 36.4049 124.795 36.8242 124.803 37.3008H123.182ZM125.746 36.3945V35H132.316V36.3945H129.867V43H128.195V36.3945H125.746ZM133.398 43V35H138.789V36.3945H135.089V38.3008H138.511V39.6953H135.089V41.6055H138.804V43H133.398ZM140.133 35H142.219L144.422 40.375H144.516L146.719 35H148.805V43H147.165V37.793H147.098L145.028 42.9609H143.911L141.84 37.7734H141.774V43H140.133V35ZM154.539 37.3008C154.507 36.9857 154.373 36.7409 154.136 36.5664C153.899 36.3919 153.578 36.3047 153.171 36.3047C152.895 36.3047 152.662 36.3437 152.472 36.4219C152.282 36.4974 152.136 36.6029 152.035 36.7383C151.936 36.8737 151.886 37.0273 151.886 37.1992C151.881 37.3424 151.911 37.4674 151.976 37.5742C152.044 37.681 152.136 37.7734 152.253 37.8516C152.371 37.9271 152.506 37.9935 152.66 38.0508C152.813 38.1055 152.977 38.1523 153.152 38.1914L153.871 38.3633C154.22 38.4414 154.54 38.5456 154.832 38.6758C155.123 38.806 155.376 38.9661 155.589 39.1562C155.803 39.3464 155.968 39.5703 156.085 39.8281C156.205 40.0859 156.266 40.3815 156.269 40.7148C156.266 41.2044 156.141 41.6289 155.894 41.9883C155.649 42.3451 155.295 42.6224 154.832 42.8203C154.371 43.0156 153.815 43.1133 153.164 43.1133C152.518 43.1133 151.955 43.0143 151.476 42.8164C151 42.6185 150.627 42.3255 150.359 41.9375C150.093 41.5469 149.954 41.0638 149.941 40.4883H151.578C151.596 40.7565 151.673 40.9805 151.808 41.1602C151.946 41.3372 152.13 41.4714 152.359 41.5625C152.591 41.651 152.852 41.6953 153.144 41.6953C153.431 41.6953 153.679 41.6536 153.89 41.5703C154.104 41.487 154.269 41.3711 154.386 41.2227C154.503 41.0742 154.562 40.9036 154.562 40.7109C154.562 40.5312 154.509 40.3802 154.402 40.2578C154.298 40.1354 154.144 40.0312 153.941 39.9453C153.74 39.8594 153.494 39.7812 153.203 39.7109L152.332 39.4922C151.657 39.3281 151.125 39.0716 150.734 38.7227C150.343 38.3737 150.149 37.9036 150.152 37.3125C150.149 36.8281 150.278 36.4049 150.539 36.043C150.802 35.681 151.162 35.3984 151.621 35.1953C152.079 34.9922 152.6 34.8906 153.183 34.8906C153.777 34.8906 154.295 34.9922 154.738 35.1953C155.183 35.3984 155.529 35.681 155.777 36.043C156.024 36.4049 156.152 36.8242 156.16 37.3008H154.539Z" fill="#BAE6FD"/>
<path d="M27.7067 97V77.3636H35.5689C37.0135 77.3636 38.2184 77.5778 39.1836 78.006C40.1488 78.4343 40.8743 79.0288 41.3601 79.7894C41.8459 80.5437 42.0888 81.413 42.0888 82.3974C42.0888 83.1644 41.9354 83.8388 41.6286 84.4205C41.3217 84.9957 40.8999 85.4687 40.3629 85.8395C39.8324 86.2038 39.2251 86.4627 38.5412 86.6161V86.8079C39.2891 86.8398 39.989 87.0508 40.641 87.4407C41.2994 87.8306 41.8331 88.3771 42.2422 89.0803C42.6513 89.777 42.8558 90.608 42.8558 91.5732C42.8558 92.6151 42.5969 93.5451 42.0792 94.3633C41.5678 95.1751 40.8104 95.8175 39.8068 96.2905C38.8033 96.7635 37.5664 97 36.0962 97H27.7067ZM31.8583 93.6058H35.2429C36.3999 93.6058 37.2436 93.3853 37.7741 92.9442C38.3047 92.4968 38.57 91.9023 38.57 91.1609C38.57 90.6175 38.4389 90.1381 38.1768 89.7227C37.9148 89.3072 37.5408 88.9812 37.055 88.7447C36.5756 88.5082 36.0036 88.3899 35.3388 88.3899H31.8583V93.6058ZM31.8583 85.5806H34.9361C35.505 85.5806 36.0099 85.4815 36.451 85.2834C36.8984 85.0788 37.25 84.7912 37.5057 84.4205C37.7678 84.0497 37.8988 83.6055 37.8988 83.0877C37.8988 82.3782 37.6463 81.8061 37.1413 81.3714C36.6428 80.9368 35.9332 80.7195 35.0128 80.7195H31.8583V85.5806ZM54.9248 90.7294V82.2727H59.0093V97H55.0878V94.3249H54.9344C54.602 95.1879 54.0491 95.8814 53.2757 96.4055C52.5086 96.9297 51.5722 97.1918 50.4664 97.1918C49.482 97.1918 48.6159 96.968 47.868 96.5206C47.1201 96.0732 46.5352 95.4371 46.1134 94.6126C45.6979 93.788 45.4869 92.8004 45.4806 91.6499V82.2727H49.5651V90.9212C49.5715 91.7905 49.8048 92.4776 50.265 92.9826C50.7252 93.4876 51.3421 93.7401 52.1155 93.7401C52.6077 93.7401 53.0679 93.6282 53.4962 93.4045C53.9244 93.1744 54.2696 92.8356 54.5317 92.3881C54.8002 91.9407 54.9312 91.3878 54.9248 90.7294ZM62.2765 97V82.2727H66.361V97H62.2765ZM64.3283 80.3743C63.7211 80.3743 63.2001 80.1729 62.7654 79.7702C62.3372 79.3611 62.123 78.8722 62.123 78.3033C62.123 77.7408 62.3372 77.2582 62.7654 76.8555C63.2001 76.4464 63.7211 76.2418 64.3283 76.2418C64.9355 76.2418 65.4533 76.4464 65.8816 76.8555C66.3162 77.2582 66.5336 77.7408 66.5336 78.3033C66.5336 78.8722 66.3162 79.3611 65.8816 79.7702C65.4533 80.1729 64.9355 80.3743 64.3283 80.3743ZM73.7174 77.3636V97H69.6329V77.3636H73.7174ZM82.4162 97.2397C81.2976 97.2397 80.2844 96.9521 79.3768 96.3768C78.4755 95.7951 77.7596 94.9418 77.229 93.8168C76.7049 92.6854 76.4428 91.2983 76.4428 89.6555C76.4428 87.968 76.7145 86.565 77.2578 85.4464C77.8011 84.3214 78.5234 83.4808 79.4247 82.9247C80.3324 82.3622 81.3263 82.081 82.4066 82.081C83.2312 82.081 83.9183 82.2216 84.468 82.5028C85.0241 82.7777 85.4716 83.1229 85.8104 83.5384C86.1555 83.9474 86.4176 84.3501 86.5966 84.7464H86.7212V77.3636H90.7962V97H86.7692V94.6413H86.5966C86.4048 95.0504 86.1332 95.4563 85.7816 95.859C85.4364 96.2553 84.9858 96.5845 84.4297 96.8466C83.88 97.1087 83.2088 97.2397 82.4162 97.2397ZM83.7106 93.9893C84.369 93.9893 84.9251 93.8104 85.3789 93.4524C85.8391 93.0881 86.1907 92.5799 86.4336 91.9279C86.6829 91.2759 86.8075 90.5121 86.8075 89.6364C86.8075 88.7607 86.6861 88 86.4432 87.3544C86.2003 86.7088 85.8487 86.2102 85.3885 85.8587C84.9283 85.5071 84.369 85.3313 83.7106 85.3313C83.0394 85.3313 82.4737 85.5135 82.0135 85.8778C81.5533 86.2422 81.2049 86.7472 80.9684 87.3928C80.7319 88.0384 80.6136 88.7862 80.6136 89.6364C80.6136 90.4929 80.7319 91.2504 80.9684 91.9087C81.2113 92.5607 81.5597 93.0721 82.0135 93.4428C82.4737 93.8072 83.0394 93.9893 83.7106 93.9893ZM114.134 82.2727L108.985 97H104.382L99.2337 82.2727H103.548L106.607 92.81H106.76L109.809 82.2727H114.134ZM116.224 97V82.2727H120.308V97H116.224ZM118.276 80.3743C117.668 80.3743 117.147 80.1729 116.713 79.7702C116.284 79.3611 116.07 78.8722 116.07 78.3033C116.07 77.7408 116.284 77.2582 116.713 76.8555C117.147 76.4464 117.668 76.2418 118.276 76.2418C118.883 76.2418 119.401 76.4464 119.829 76.8555C120.263 77.2582 120.481 77.7408 120.481 78.3033C120.481 78.8722 120.263 79.3611 119.829 79.7702C119.401 80.1729 118.883 80.3743 118.276 80.3743ZM135.834 86.4723L132.094 86.7024C132.03 86.3828 131.893 86.0952 131.682 85.8395C131.471 85.5774 131.193 85.3697 130.848 85.2163C130.509 85.0565 130.103 84.9766 129.63 84.9766C128.997 84.9766 128.464 85.1108 128.029 85.3793C127.594 85.6413 127.377 85.9929 127.377 86.4339C127.377 86.7855 127.518 87.0827 127.799 87.3256C128.08 87.5685 128.563 87.7635 129.247 87.9105L131.912 88.4474C133.344 88.7415 134.411 89.2145 135.115 89.8665C135.818 90.5185 136.169 91.375 136.169 92.4361C136.169 93.4013 135.885 94.2482 135.316 94.9769C134.753 95.7056 133.98 96.2745 132.996 96.6836C132.018 97.0863 130.889 97.2876 129.611 97.2876C127.661 97.2876 126.108 96.8817 124.951 96.07C123.801 95.2518 123.126 94.1396 122.928 92.7333L126.946 92.5224C127.067 93.1168 127.361 93.5707 127.828 93.8839C128.294 94.1907 128.892 94.3441 129.621 94.3441C130.337 94.3441 130.912 94.2067 131.347 93.9318C131.788 93.6506 132.011 93.2894 132.018 92.8484C132.011 92.4776 131.855 92.174 131.548 91.9375C131.241 91.6946 130.768 91.5092 130.129 91.3814L127.578 90.8732C126.14 90.5856 125.07 90.087 124.366 89.3775C123.67 88.668 123.321 87.7635 123.321 86.6641C123.321 85.718 123.577 84.9031 124.088 84.2191C124.606 83.5352 125.332 83.0078 126.265 82.6371C127.204 82.2663 128.304 82.081 129.563 82.081C131.423 82.081 132.887 82.4741 133.954 83.2603C135.028 84.0465 135.655 85.1172 135.834 86.4723ZM148.186 90.7294V82.2727H152.27V97H148.349V94.3249H148.195C147.863 95.1879 147.31 95.8814 146.536 96.4055C145.769 96.9297 144.833 97.1918 143.727 97.1918C142.743 97.1918 141.877 96.968 141.129 96.5206C140.381 96.0732 139.796 95.4371 139.374 94.6126C138.959 93.788 138.748 92.8004 138.741 91.6499V82.2727H142.826V90.9212C142.832 91.7905 143.066 92.4776 143.526 92.9826C143.986 93.4876 144.603 93.7401 145.376 93.7401C145.868 93.7401 146.329 93.6282 146.757 93.4045C147.185 93.1744 147.53 92.8356 147.792 92.3881C148.061 91.9407 148.192 91.3878 148.186 90.7294ZM159.737 97.2781C158.797 97.2781 157.96 97.1151 157.225 96.7891C156.49 96.4567 155.908 95.9677 155.48 95.3221C155.058 94.6701 154.847 93.8583 154.847 92.8867C154.847 92.0685 154.997 91.3814 155.297 90.8253C155.598 90.2692 156.007 89.8217 156.525 89.483C157.043 89.1442 157.631 88.8885 158.289 88.7159C158.954 88.5433 159.65 88.4219 160.379 88.3516C161.236 88.2621 161.926 88.179 162.45 88.1023C162.974 88.0192 163.355 87.8977 163.591 87.7379C163.828 87.5781 163.946 87.3416 163.946 87.0284V86.9709C163.946 86.3636 163.754 85.8938 163.371 85.5614C162.994 85.229 162.457 85.0629 161.76 85.0629C161.025 85.0629 160.44 85.2259 160.005 85.5518C159.571 85.8714 159.283 86.2741 159.142 86.7599L155.365 86.4531C155.556 85.5582 155.934 84.7848 156.496 84.1328C157.059 83.4744 157.784 82.9695 158.672 82.6179C159.567 82.2599 160.603 82.081 161.779 82.081C162.597 82.081 163.38 82.1768 164.128 82.3686C164.882 82.5604 165.55 82.8576 166.132 83.2603C166.72 83.663 167.184 84.1808 167.522 84.8136C167.861 85.44 168.03 86.1911 168.03 87.0668V97H164.157V94.9577H164.042C163.805 95.418 163.489 95.8239 163.093 96.1754C162.696 96.5206 162.22 96.7923 161.664 96.9904C161.108 97.1822 160.465 97.2781 159.737 97.2781ZM160.907 94.4592C161.507 94.4592 162.038 94.3409 162.498 94.1044C162.958 93.8615 163.32 93.5355 163.582 93.1264C163.844 92.7173 163.975 92.2539 163.975 91.7362V90.1733C163.847 90.2564 163.671 90.3331 163.447 90.4034C163.23 90.4673 162.984 90.5281 162.709 90.5856C162.434 90.6367 162.159 90.6847 161.884 90.7294C161.61 90.7678 161.36 90.8029 161.137 90.8349C160.657 90.9052 160.239 91.017 159.881 91.1705C159.523 91.3239 159.245 91.5316 159.046 91.7937C158.848 92.0494 158.749 92.369 158.749 92.7525C158.749 93.3086 158.951 93.7337 159.353 94.0277C159.762 94.3153 160.28 94.4592 160.907 94.4592ZM175.284 77.3636V97H171.199V77.3636H175.284ZM182.64 77.3636V97H178.556V77.3636H182.64ZM188.434 102.523C187.916 102.523 187.43 102.481 186.976 102.398C186.529 102.321 186.158 102.222 185.864 102.101L186.785 99.0518C187.264 99.1989 187.696 99.2788 188.079 99.2915C188.469 99.3043 188.805 99.2148 189.086 99.0231C189.373 98.8313 189.607 98.5053 189.786 98.0451L190.025 97.4219L184.742 82.2727H189.038L192.087 93.0881H192.24L195.318 82.2727H199.642L193.918 98.5916C193.643 99.3842 193.269 100.075 192.796 100.663C192.33 101.257 191.739 101.714 191.023 102.034C190.307 102.36 189.444 102.523 188.434 102.523ZM203.197 97.2493C202.564 97.2493 202.021 97.0256 201.567 96.5781C201.12 96.1243 200.896 95.581 200.896 94.9482C200.896 94.3217 201.12 93.7848 201.567 93.3374C202.021 92.8899 202.564 92.6662 203.197 92.6662C203.811 92.6662 204.348 92.8899 204.808 93.3374C205.268 93.7848 205.498 94.3217 205.498 94.9482C205.498 95.37 205.39 95.7567 205.172 96.1083C204.961 96.4535 204.683 96.7315 204.338 96.9425C203.993 97.147 203.613 97.2493 203.197 97.2493Z" fill="#F0FAFF"/>
<path d="M36.0994 119.5H34.7784C34.7003 119.12 34.5636 118.786 34.3683 118.499C34.1765 118.211 33.9421 117.969 33.6651 117.774C33.3917 117.575 33.0881 117.426 32.7543 117.327C32.4205 117.227 32.0724 117.178 31.7102 117.178C31.0497 117.178 30.4513 117.344 29.9151 117.678C29.3825 118.012 28.9581 118.504 28.642 119.154C28.3295 119.804 28.1733 120.601 28.1733 121.545C28.1733 122.49 28.3295 123.287 28.642 123.937C28.9581 124.587 29.3825 125.079 29.9151 125.413C30.4513 125.746 31.0497 125.913 31.7102 125.913C32.0724 125.913 32.4205 125.864 32.7543 125.764C33.0881 125.665 33.3917 125.517 33.6651 125.322C33.9421 125.123 34.1765 124.88 34.3683 124.592C34.5636 124.301 34.7003 123.967 34.7784 123.591H36.0994C36 124.148 35.8189 124.647 35.5561 125.088C35.2933 125.528 34.9666 125.903 34.576 126.212C34.1854 126.517 33.7468 126.75 33.2603 126.909C32.7773 127.069 32.2607 127.149 31.7102 127.149C30.7798 127.149 29.9524 126.922 29.228 126.467C28.5036 126.013 27.9336 125.366 27.5181 124.528C27.1026 123.69 26.8949 122.696 26.8949 121.545C26.8949 120.395 27.1026 119.401 27.5181 118.562C27.9336 117.724 28.5036 117.078 29.228 116.624C29.9524 116.169 30.7798 115.942 31.7102 115.942C32.2607 115.942 32.7773 116.022 33.2603 116.181C33.7468 116.341 34.1854 116.576 34.576 116.885C34.9666 117.19 35.2933 117.563 35.5561 118.003C35.8189 118.44 36 118.939 36.0994 119.5ZM41.3875 127.17C40.6489 127.17 40.0008 126.995 39.4433 126.643C38.8893 126.292 38.4561 125.8 38.1436 125.168C37.8346 124.536 37.6801 123.797 37.6801 122.952C37.6801 122.099 37.8346 121.355 38.1436 120.72C38.4561 120.084 38.8893 119.591 39.4433 119.239C40.0008 118.887 40.6489 118.712 41.3875 118.712C42.1262 118.712 42.7725 118.887 43.3264 119.239C43.884 119.591 44.3172 120.084 44.6262 120.72C44.9387 121.355 45.0949 122.099 45.0949 122.952C45.0949 123.797 44.9387 124.536 44.6262 125.168C44.3172 125.8 43.884 126.292 43.3264 126.643C42.7725 126.995 42.1262 127.17 41.3875 127.17ZM41.3875 126.041C41.9486 126.041 42.4102 125.897 42.7725 125.61C43.1347 125.322 43.4028 124.944 43.5768 124.475C43.7508 124.006 43.8378 123.499 43.8378 122.952C43.8378 122.405 43.7508 121.895 43.5768 121.423C43.4028 120.951 43.1347 120.569 42.7725 120.278C42.4102 119.987 41.9486 119.841 41.3875 119.841C40.8264 119.841 40.3648 119.987 40.0026 120.278C39.6404 120.569 39.3722 120.951 39.1982 121.423C39.0242 121.895 38.9372 122.405 38.9372 122.952C38.9372 123.499 39.0242 124.006 39.1982 124.475C39.3722 124.944 39.6404 125.322 40.0026 125.61C40.3648 125.897 40.8264 126.041 41.3875 126.041ZM47.0138 127V118.818H48.2283V120.097H48.3349C48.5053 119.66 48.7805 119.321 49.1605 119.079C49.5405 118.834 49.9968 118.712 50.5295 118.712C51.0692 118.712 51.5185 118.834 51.8771 119.079C52.2393 119.321 52.5217 119.66 52.7241 120.097H52.8093C53.0188 119.674 53.3331 119.338 53.7521 119.09C54.1712 118.838 54.6737 118.712 55.2596 118.712C55.9911 118.712 56.5895 118.941 57.0547 119.399C57.5199 119.853 57.7525 120.562 57.7525 121.524V127H56.4954V121.524C56.4954 120.92 56.3303 120.489 56 120.23C55.6697 119.971 55.2809 119.841 54.8335 119.841C54.2582 119.841 53.8125 120.015 53.4964 120.363C53.1804 120.707 53.0224 121.144 53.0224 121.673V127H51.744V121.396C51.744 120.931 51.593 120.556 51.2912 120.272C50.9893 119.985 50.6005 119.841 50.1246 119.841C49.7979 119.841 49.4925 119.928 49.2085 120.102C48.9279 120.276 48.7006 120.517 48.5266 120.826C48.3562 121.132 48.271 121.485 48.271 121.886V127H47.0138ZM60.051 130.068V118.818H61.2654V120.118H61.4146C61.5069 119.976 61.6348 119.795 61.7981 119.575C61.965 119.351 62.2029 119.152 62.5119 118.978C62.8244 118.8 63.247 118.712 63.7797 118.712C64.4686 118.712 65.0758 118.884 65.6014 119.228C66.127 119.573 66.5371 120.061 66.8319 120.693C67.1266 121.325 67.274 122.071 67.274 122.93C67.274 123.797 67.1266 124.548 66.8319 125.184C66.5371 125.816 66.1287 126.306 65.6067 126.654C65.0847 126.998 64.4828 127.17 63.801 127.17C63.2754 127.17 62.8546 127.083 62.5385 126.909C62.2225 126.732 61.9792 126.531 61.8088 126.308C61.6383 126.08 61.5069 125.892 61.4146 125.743H61.3081V130.068H60.051ZM61.2868 122.909C61.2868 123.527 61.3773 124.072 61.5584 124.544C61.7395 125.013 62.0041 125.381 62.3521 125.647C62.7001 125.91 63.1262 126.041 63.6305 126.041C64.1561 126.041 64.5946 125.903 64.9462 125.626C65.3013 125.345 65.5676 124.969 65.7452 124.496C65.9263 124.021 66.0169 123.491 66.0169 122.909C66.0169 122.334 65.9281 121.815 65.7505 121.354C65.5765 120.888 65.312 120.521 64.9569 120.251C64.6053 119.978 64.1632 119.841 63.6305 119.841C63.1191 119.841 62.6895 119.971 62.3414 120.23C61.9934 120.485 61.7306 120.844 61.5531 121.306C61.3755 121.764 61.2868 122.298 61.2868 122.909ZM72.5154 127.17C71.7768 127.17 71.1287 126.995 70.5712 126.643C70.0172 126.292 69.584 125.8 69.2715 125.168C68.9625 124.536 68.8081 123.797 68.8081 122.952C68.8081 122.099 68.9625 121.355 69.2715 120.72C69.584 120.084 70.0172 119.591 70.5712 119.239C71.1287 118.887 71.7768 118.712 72.5154 118.712C73.2541 118.712 73.9004 118.887 74.4544 119.239C75.0119 119.591 75.4451 120.084 75.7541 120.72C76.0666 121.355 76.2228 122.099 76.2228 122.952C76.2228 123.797 76.0666 124.536 75.7541 125.168C75.4451 125.8 75.0119 126.292 74.4544 126.643C73.9004 126.995 73.2541 127.17 72.5154 127.17ZM72.5154 126.041C73.0765 126.041 73.5382 125.897 73.9004 125.61C74.2626 125.322 74.5307 124.944 74.7047 124.475C74.8787 124.006 74.9657 123.499 74.9657 122.952C74.9657 122.405 74.8787 121.895 74.7047 121.423C74.5307 120.951 74.2626 120.569 73.9004 120.278C73.5382 119.987 73.0765 119.841 72.5154 119.841C71.9544 119.841 71.4927 119.987 71.1305 120.278C70.7683 120.569 70.5002 120.951 70.3262 121.423C70.1522 121.895 70.0652 122.405 70.0652 122.952C70.0652 123.499 70.1522 124.006 70.3262 124.475C70.5002 124.944 70.7683 125.322 71.1305 125.61C71.4927 125.897 71.9544 126.041 72.5154 126.041ZM83.9372 120.651L82.808 120.97C82.7369 120.782 82.6322 120.599 82.4937 120.422C82.3588 120.24 82.1741 120.091 81.9397 119.974C81.7053 119.857 81.4053 119.798 81.0395 119.798C80.5388 119.798 80.1215 119.914 79.7877 120.145C79.4575 120.372 79.2923 120.661 79.2923 121.013C79.2923 121.325 79.406 121.572 79.6333 121.753C79.8605 121.934 80.2156 122.085 80.6986 122.206L81.9131 122.504C82.6446 122.682 83.1897 122.953 83.5484 123.319C83.907 123.681 84.0864 124.148 84.0864 124.72C84.0864 125.189 83.9514 125.608 83.6816 125.977C83.4152 126.347 83.0423 126.638 82.5629 126.851C82.0835 127.064 81.526 127.17 80.8904 127.17C80.0558 127.17 79.3651 126.989 78.8183 126.627C78.2714 126.265 77.9252 125.736 77.7796 125.04L78.9727 124.741C79.0864 125.182 79.3012 125.512 79.6173 125.732C79.9369 125.952 80.3541 126.062 80.8691 126.062C81.455 126.062 81.9202 125.938 82.2646 125.69C82.6127 125.437 82.7867 125.136 82.7867 124.784C82.7867 124.5 82.6872 124.262 82.4884 124.07C82.2895 123.875 81.9841 123.729 81.5722 123.634L80.2085 123.314C79.4593 123.136 78.9088 122.861 78.5573 122.488C78.2093 122.112 78.0352 121.641 78.0352 121.077C78.0352 120.615 78.1649 120.207 78.4241 119.852C78.6869 119.496 79.0438 119.218 79.4948 119.015C79.9493 118.813 80.4642 118.712 81.0395 118.712C81.8492 118.712 82.4848 118.889 82.9465 119.244C83.4117 119.599 83.7419 120.068 83.9372 120.651ZM89.4091 127.17C88.6207 127.17 87.9407 126.996 87.369 126.648C86.8008 126.297 86.3622 125.807 86.0533 125.178C85.7479 124.546 85.5952 123.811 85.5952 122.973C85.5952 122.135 85.7479 121.396 86.0533 120.757C86.3622 120.114 86.7919 119.614 87.3423 119.255C87.8963 118.893 88.5426 118.712 89.2812 118.712C89.7074 118.712 90.1282 118.783 90.5437 118.925C90.9592 119.067 91.3374 119.298 91.6783 119.617C92.0192 119.933 92.2908 120.352 92.4933 120.874C92.6957 121.396 92.7969 122.039 92.7969 122.803V123.335H86.4901V122.249H91.5185C91.5185 121.787 91.4261 121.375 91.2415 121.013C91.0604 120.651 90.8011 120.365 90.4638 120.155C90.13 119.946 89.7358 119.841 89.2812 119.841C88.7805 119.841 88.3473 119.965 87.9815 120.214C87.6193 120.459 87.3406 120.778 87.1452 121.173C86.9499 121.567 86.8523 121.989 86.8523 122.44V123.165C86.8523 123.783 86.9588 124.306 87.1719 124.736C87.3885 125.162 87.6886 125.487 88.0721 125.711C88.4556 125.931 88.9013 126.041 89.4091 126.041C89.7393 126.041 90.0376 125.995 90.304 125.903C90.5739 125.807 90.8065 125.665 91.0018 125.477C91.1971 125.285 91.348 125.047 91.4545 124.763L92.669 125.104C92.5412 125.516 92.3263 125.878 92.0245 126.19C91.7227 126.499 91.3498 126.741 90.9059 126.915C90.462 127.085 89.9631 127.17 89.4091 127.17ZM98.9279 127V118.818H100.142V120.054H100.228C100.377 119.649 100.647 119.321 101.037 119.069C101.428 118.816 101.868 118.69 102.358 118.69C102.451 118.69 102.566 118.692 102.705 118.696C102.843 118.699 102.948 118.705 103.019 118.712V119.99C102.976 119.979 102.879 119.963 102.726 119.942C102.577 119.917 102.419 119.905 102.252 119.905C101.854 119.905 101.499 119.988 101.186 120.155C100.877 120.319 100.632 120.546 100.451 120.837C100.274 121.125 100.185 121.453 100.185 121.822V127H98.9279ZM107.584 127.17C106.845 127.17 106.197 126.995 105.64 126.643C105.086 126.292 104.652 125.8 104.34 125.168C104.031 124.536 103.876 123.797 103.876 122.952C103.876 122.099 104.031 121.355 104.34 120.72C104.652 120.084 105.086 119.591 105.64 119.239C106.197 118.887 106.845 118.712 107.584 118.712C108.322 118.712 108.969 118.887 109.523 119.239C110.08 119.591 110.513 120.084 110.822 120.72C111.135 121.355 111.291 122.099 111.291 122.952C111.291 123.797 111.135 124.536 110.822 125.168C110.513 125.8 110.08 126.292 109.523 126.643C108.969 126.995 108.322 127.17 107.584 127.17ZM107.584 126.041C108.145 126.041 108.607 125.897 108.969 125.61C109.331 125.322 109.599 124.944 109.773 124.475C109.947 124.006 110.034 123.499 110.034 122.952C110.034 122.405 109.947 121.895 109.773 121.423C109.599 120.951 109.331 120.569 108.969 120.278C108.607 119.987 108.145 119.841 107.584 119.841C107.023 119.841 106.561 119.987 106.199 120.278C105.837 120.569 105.569 120.951 105.395 121.423C105.221 121.895 105.134 122.405 105.134 122.952C105.134 123.499 105.221 124.006 105.395 124.475C105.569 124.944 105.837 125.322 106.199 125.61C106.561 125.897 107.023 126.041 107.584 126.041ZM113.381 127V116.091H114.638V120.118H114.744C114.837 119.976 114.964 119.795 115.128 119.575C115.295 119.351 115.533 119.152 115.842 118.978C116.154 118.8 116.577 118.712 117.109 118.712C117.798 118.712 118.405 118.884 118.931 119.228C119.457 119.573 119.867 120.061 120.161 120.693C120.456 121.325 120.604 122.071 120.604 122.93C120.604 123.797 120.456 124.548 120.161 125.184C119.867 125.816 119.458 126.306 118.936 126.654C118.414 126.998 117.812 127.17 117.131 127.17C116.605 127.17 116.184 127.083 115.868 126.909C115.552 126.732 115.309 126.531 115.138 126.308C114.968 126.08 114.837 125.892 114.744 125.743H114.595V127H113.381ZM114.616 122.909C114.616 123.527 114.707 124.072 114.888 124.544C115.069 125.013 115.334 125.381 115.682 125.647C116.03 125.91 116.456 126.041 116.96 126.041C117.486 126.041 117.924 125.903 118.276 125.626C118.631 125.345 118.897 124.969 119.075 124.496C119.256 124.021 119.347 123.491 119.347 122.909C119.347 122.334 119.258 121.815 119.08 121.354C118.906 120.888 118.642 120.521 118.286 120.251C117.935 119.978 117.493 119.841 116.96 119.841C116.449 119.841 116.019 119.971 115.671 120.23C115.323 120.485 115.06 120.844 114.883 121.306C114.705 121.764 114.616 122.298 114.616 122.909ZM127.683 123.655V118.818H128.94V127H127.683V125.615H127.598C127.406 126.031 127.108 126.384 126.703 126.675C126.298 126.963 125.786 127.107 125.169 127.107C124.657 127.107 124.203 126.995 123.805 126.771C123.407 126.544 123.095 126.203 122.867 125.748C122.64 125.29 122.527 124.713 122.527 124.017V118.818H123.784V123.932C123.784 124.528 123.951 125.004 124.284 125.359C124.622 125.714 125.051 125.892 125.573 125.892C125.886 125.892 126.204 125.812 126.527 125.652C126.854 125.493 127.127 125.248 127.347 124.917C127.571 124.587 127.683 124.166 127.683 123.655ZM137.038 120.651L135.909 120.97C135.838 120.782 135.733 120.599 135.594 120.422C135.459 120.24 135.275 120.091 135.04 119.974C134.806 119.857 134.506 119.798 134.14 119.798C133.639 119.798 133.222 119.914 132.888 120.145C132.558 120.372 132.393 120.661 132.393 121.013C132.393 121.325 132.507 121.572 132.734 121.753C132.961 121.934 133.316 122.085 133.799 122.206L135.014 122.504C135.745 122.682 136.29 122.953 136.649 123.319C137.008 123.681 137.187 124.148 137.187 124.72C137.187 125.189 137.052 125.608 136.782 125.977C136.516 126.347 136.143 126.638 135.664 126.851C135.184 127.064 134.627 127.17 133.991 127.17C133.156 127.17 132.466 126.989 131.919 126.627C131.372 126.265 131.026 125.736 130.88 125.04L132.073 124.741C132.187 125.182 132.402 125.512 132.718 125.732C133.037 125.952 133.455 126.062 133.97 126.062C134.556 126.062 135.021 125.938 135.365 125.69C135.713 125.437 135.887 125.136 135.887 124.784C135.887 124.5 135.788 124.262 135.589 124.07C135.39 123.875 135.085 123.729 134.673 123.634L133.309 123.314C132.56 123.136 132.009 122.861 131.658 122.488C131.31 122.112 131.136 121.641 131.136 121.077C131.136 120.615 131.265 120.207 131.525 119.852C131.787 119.496 132.144 119.218 132.595 119.015C133.05 118.813 133.565 118.712 134.14 118.712C134.95 118.712 135.585 118.889 136.047 119.244C136.512 119.599 136.843 120.068 137.038 120.651ZM142.638 118.818V119.884H138.397V118.818H142.638ZM139.633 116.858H140.89V124.656C140.89 125.011 140.942 125.278 141.045 125.455C141.151 125.629 141.286 125.746 141.45 125.807C141.617 125.864 141.792 125.892 141.977 125.892C142.116 125.892 142.229 125.885 142.318 125.871C142.407 125.853 142.478 125.839 142.531 125.828L142.787 126.957C142.701 126.989 142.582 127.021 142.43 127.053C142.277 127.089 142.084 127.107 141.849 127.107C141.494 127.107 141.146 127.03 140.805 126.877C140.468 126.725 140.187 126.492 139.964 126.18C139.743 125.867 139.633 125.473 139.633 124.997V116.858ZM148.747 130.068V118.818H149.962V120.118H150.111C150.203 119.976 150.331 119.795 150.494 119.575C150.661 119.351 150.899 119.152 151.208 118.978C151.521 118.8 151.943 118.712 152.476 118.712C153.165 118.712 153.772 118.884 154.298 119.228C154.823 119.573 155.233 120.061 155.528 120.693C155.823 121.325 155.97 122.071 155.97 122.93C155.97 123.797 155.823 124.548 155.528 125.184C155.233 125.816 154.825 126.306 154.303 126.654C153.781 126.998 153.179 127.17 152.497 127.17C151.972 127.17 151.551 127.083 151.235 126.909C150.919 126.732 150.676 126.531 150.505 126.308C150.335 126.08 150.203 125.892 150.111 125.743H150.004V130.068H148.747ZM149.983 122.909C149.983 123.527 150.074 124.072 150.255 124.544C150.436 125.013 150.7 125.381 151.048 125.647C151.396 125.91 151.823 126.041 152.327 126.041C152.852 126.041 153.291 125.903 153.642 125.626C153.998 125.345 154.264 124.969 154.441 124.496C154.623 124.021 154.713 123.491 154.713 122.909C154.713 122.334 154.624 121.815 154.447 121.354C154.273 120.888 154.008 120.521 153.653 120.251C153.302 119.978 152.859 119.841 152.327 119.841C151.815 119.841 151.386 119.971 151.038 120.23C150.69 120.485 150.427 120.844 150.249 121.306C150.072 121.764 149.983 122.298 149.983 122.909ZM157.888 127V118.818H159.102V120.054H159.188C159.337 119.649 159.607 119.321 159.997 119.069C160.388 118.816 160.828 118.69 161.318 118.69C161.411 118.69 161.526 118.692 161.665 118.696C161.803 118.699 161.908 118.705 161.979 118.712V119.99C161.936 119.979 161.839 119.963 161.686 119.942C161.537 119.917 161.379 119.905 161.212 119.905C160.814 119.905 160.459 119.988 160.146 120.155C159.837 120.319 159.592 120.546 159.411 120.837C159.234 121.125 159.145 121.453 159.145 121.822V127H157.888ZM166.544 127.17C165.805 127.17 165.157 126.995 164.6 126.643C164.046 126.292 163.612 125.8 163.3 125.168C162.991 124.536 162.836 123.797 162.836 122.952C162.836 122.099 162.991 121.355 163.3 120.72C163.612 120.084 164.046 119.591 164.6 119.239C165.157 118.887 165.805 118.712 166.544 118.712C167.282 118.712 167.929 118.887 168.483 119.239C169.04 119.591 169.473 120.084 169.782 120.72C170.095 121.355 170.251 122.099 170.251 122.952C170.251 123.797 170.095 124.536 169.782 125.168C169.473 125.8 169.04 126.292 168.483 126.643C167.929 126.995 167.282 127.17 166.544 127.17ZM166.544 126.041C167.105 126.041 167.566 125.897 167.929 125.61C168.291 125.322 168.559 124.944 168.733 124.475C168.907 124.006 168.994 123.499 168.994 122.952C168.994 122.405 168.907 121.895 168.733 121.423C168.559 120.951 168.291 120.569 167.929 120.278C167.566 119.987 167.105 119.841 166.544 119.841C165.983 119.841 165.521 119.987 165.159 120.278C164.797 120.569 164.528 120.951 164.354 121.423C164.18 121.895 164.093 122.405 164.093 122.952C164.093 123.499 164.18 124.006 164.354 124.475C164.528 124.944 164.797 125.322 165.159 125.61C165.521 125.897 165.983 126.041 166.544 126.041ZM172.17 118.818H173.427V127.597C173.427 128.101 173.34 128.538 173.166 128.907C172.996 129.276 172.737 129.562 172.388 129.765C172.044 129.967 171.609 130.068 171.083 130.068C171.041 130.068 170.998 130.068 170.956 130.068C170.913 130.068 170.87 130.068 170.828 130.068V128.896C170.87 128.896 170.909 128.896 170.945 128.896C170.98 128.896 171.02 128.896 171.062 128.896C171.446 128.896 171.726 128.783 171.904 128.555C172.081 128.332 172.17 128.012 172.17 127.597V118.818ZM172.788 117.455C172.543 117.455 172.332 117.371 172.154 117.204C171.98 117.037 171.893 116.837 171.893 116.602C171.893 116.368 171.98 116.167 172.154 116C172.332 115.833 172.543 115.75 172.788 115.75C173.033 115.75 173.243 115.833 173.417 116C173.594 116.167 173.683 116.368 173.683 116.602C173.683 116.837 173.594 117.037 173.417 117.204C173.243 117.371 173.033 117.455 172.788 117.455ZM179.16 127.17C178.372 127.17 177.692 126.996 177.12 126.648C176.552 126.297 176.113 125.807 175.804 125.178C175.499 124.546 175.346 123.811 175.346 122.973C175.346 122.135 175.499 121.396 175.804 120.757C176.113 120.114 176.543 119.614 177.093 119.255C177.647 118.893 178.294 118.712 179.032 118.712C179.458 118.712 179.879 118.783 180.295 118.925C180.71 119.067 181.088 119.298 181.429 119.617C181.77 119.933 182.042 120.352 182.244 120.874C182.447 121.396 182.548 122.039 182.548 122.803V123.335H176.241V122.249H181.269C181.269 121.787 181.177 121.375 180.992 121.013C180.811 120.651 180.552 120.365 180.215 120.155C179.881 119.946 179.487 119.841 179.032 119.841C178.532 119.841 178.098 119.965 177.733 120.214C177.37 120.459 177.092 120.778 176.896 121.173C176.701 121.567 176.603 121.989 176.603 122.44V123.165C176.603 123.783 176.71 124.306 176.923 124.736C177.139 125.162 177.44 125.487 177.823 125.711C178.207 125.931 178.652 126.041 179.16 126.041C179.49 126.041 179.789 125.995 180.055 125.903C180.325 125.807 180.557 125.665 180.753 125.477C180.948 125.285 181.099 125.047 181.206 124.763L182.42 125.104C182.292 125.516 182.077 125.878 181.775 126.19C181.474 126.499 181.101 126.741 180.657 126.915C180.213 127.085 179.714 127.17 179.16 127.17ZM187.784 127.17C187.017 127.17 186.356 126.989 185.802 126.627C185.248 126.265 184.822 125.766 184.524 125.13C184.226 124.495 184.077 123.768 184.077 122.952C184.077 122.121 184.229 121.387 184.535 120.752C184.844 120.113 185.273 119.614 185.824 119.255C186.378 118.893 187.024 118.712 187.763 118.712C188.338 118.712 188.856 118.818 189.318 119.031C189.78 119.244 190.158 119.543 190.453 119.926C190.747 120.31 190.93 120.757 191.001 121.268H189.744C189.648 120.896 189.435 120.565 189.105 120.278C188.778 119.987 188.338 119.841 187.784 119.841C187.294 119.841 186.864 119.969 186.495 120.224C186.129 120.477 185.843 120.833 185.637 121.295C185.435 121.753 185.334 122.291 185.334 122.909C185.334 123.541 185.433 124.092 185.632 124.56C185.834 125.029 186.119 125.393 186.484 125.652C186.854 125.912 187.287 126.041 187.784 126.041C188.111 126.041 188.407 125.984 188.674 125.871C188.94 125.757 189.165 125.594 189.35 125.381C189.535 125.168 189.666 124.912 189.744 124.614H191.001C190.93 125.097 190.755 125.532 190.474 125.919C190.197 126.302 189.829 126.608 189.371 126.835C188.917 127.059 188.388 127.17 187.784 127.17ZM196.397 118.818V119.884H192.157V118.818H196.397ZM193.393 116.858H194.65V124.656C194.65 125.011 194.702 125.278 194.805 125.455C194.911 125.629 195.046 125.746 195.209 125.807C195.376 125.864 195.552 125.892 195.737 125.892C195.875 125.892 195.989 125.885 196.078 125.871C196.166 125.853 196.237 125.839 196.291 125.828L196.546 126.957C196.461 126.989 196.342 127.021 196.19 127.053C196.037 127.089 195.843 127.107 195.609 127.107C195.254 127.107 194.906 127.03 194.565 126.877C194.228 126.725 193.947 126.492 193.723 126.18C193.503 125.867 193.393 125.473 193.393 124.997V116.858ZM202.677 127V116.091H203.935V120.118H204.041C204.133 119.976 204.261 119.795 204.425 119.575C204.592 119.351 204.829 119.152 205.138 118.978C205.451 118.8 205.873 118.712 206.406 118.712C207.095 118.712 207.702 118.884 208.228 119.228C208.753 119.573 209.164 120.061 209.458 120.693C209.753 121.325 209.9 122.071 209.9 122.93C209.9 123.797 209.753 124.548 209.458 125.184C209.164 125.816 208.755 126.306 208.233 126.654C207.711 126.998 207.109 127.17 206.427 127.17C205.902 127.17 205.481 127.083 205.165 126.909C204.849 126.732 204.606 126.531 204.435 126.308C204.265 126.08 204.133 125.892 204.041 125.743H203.892V127H202.677ZM203.913 122.909C203.913 123.527 204.004 124.072 204.185 124.544C204.366 125.013 204.631 125.381 204.979 125.647C205.327 125.91 205.753 126.041 206.257 126.041C206.783 126.041 207.221 125.903 207.573 125.626C207.928 125.345 208.194 124.969 208.372 124.496C208.553 124.021 208.643 123.491 208.643 122.909C208.643 122.334 208.555 121.815 208.377 121.354C208.203 120.888 207.938 120.521 207.583 120.251C207.232 119.978 206.79 119.841 206.257 119.841C205.746 119.841 205.316 119.971 204.968 120.23C204.62 120.485 204.357 120.844 204.18 121.306C204.002 121.764 203.913 122.298 203.913 122.909ZM215.254 127.17C214.465 127.17 213.785 126.996 213.214 126.648C212.646 126.297 212.207 125.807 211.898 125.178C211.593 124.546 211.44 123.811 211.44 122.973C211.44 122.135 211.593 121.396 211.898 120.757C212.207 120.114 212.637 119.614 213.187 119.255C213.741 118.893 214.387 118.712 215.126 118.712C215.552 118.712 215.973 118.783 216.388 118.925C216.804 119.067 217.182 119.298 217.523 119.617C217.864 119.933 218.136 120.352 218.338 120.874C218.54 121.396 218.642 122.039 218.642 122.803V123.335H212.335V122.249H217.363C217.363 121.787 217.271 121.375 217.086 121.013C216.905 120.651 216.646 120.365 216.309 120.155C215.975 119.946 215.581 119.841 215.126 119.841C214.625 119.841 214.192 119.965 213.826 120.214C213.464 120.459 213.185 120.778 212.99 121.173C212.795 121.567 212.697 121.989 212.697 122.44V123.165C212.697 123.783 212.804 124.306 213.017 124.736C213.233 125.162 213.533 125.487 213.917 125.711C214.3 125.931 214.746 126.041 215.254 126.041C215.584 126.041 215.882 125.995 216.149 125.903C216.419 125.807 216.651 125.665 216.847 125.477C217.042 125.285 217.193 125.047 217.299 124.763L218.514 125.104C218.386 125.516 218.171 125.878 217.869 126.19C217.567 126.499 217.195 126.741 216.751 126.915C216.307 127.085 215.808 127.17 215.254 127.17ZM221.811 122.078V127H220.554V116.091H221.811V120.097H221.918C222.109 119.674 222.397 119.338 222.78 119.09C223.168 118.838 223.682 118.712 224.325 118.712C224.883 118.712 225.371 118.824 225.79 119.047C226.209 119.267 226.534 119.607 226.765 120.065C226.999 120.519 227.116 121.098 227.116 121.801V127H225.859V121.886C225.859 121.237 225.691 120.734 225.353 120.379C225.019 120.02 224.556 119.841 223.963 119.841C223.551 119.841 223.182 119.928 222.855 120.102C222.532 120.276 222.276 120.53 222.088 120.864C221.903 121.197 221.811 121.602 221.811 122.078ZM231.824 127.192C231.305 127.192 230.835 127.094 230.412 126.899C229.99 126.7 229.654 126.414 229.406 126.041C229.157 125.665 229.033 125.21 229.033 124.678C229.033 124.209 229.125 123.829 229.31 123.538C229.494 123.243 229.741 123.012 230.05 122.845C230.359 122.678 230.7 122.554 231.073 122.472C231.449 122.387 231.827 122.32 232.207 122.27C232.705 122.206 233.108 122.158 233.417 122.126C233.729 122.091 233.956 122.032 234.098 121.95C234.244 121.869 234.317 121.727 234.317 121.524V121.482C234.317 120.956 234.173 120.548 233.885 120.256C233.601 119.965 233.17 119.82 232.591 119.82C231.991 119.82 231.52 119.951 231.179 120.214C230.838 120.477 230.599 120.757 230.46 121.055L229.267 120.629C229.48 120.132 229.764 119.745 230.119 119.468C230.478 119.187 230.869 118.992 231.291 118.882C231.717 118.768 232.136 118.712 232.548 118.712C232.811 118.712 233.113 118.744 233.454 118.808C233.798 118.868 234.13 118.994 234.45 119.186C234.773 119.377 235.041 119.667 235.254 120.054C235.467 120.441 235.574 120.96 235.574 121.609V127H234.317V125.892H234.253C234.168 126.07 234.026 126.26 233.827 126.462C233.628 126.664 233.363 126.837 233.033 126.979C232.703 127.121 232.3 127.192 231.824 127.192ZM232.016 126.062C232.513 126.062 232.932 125.965 233.273 125.77C233.617 125.574 233.876 125.322 234.05 125.013C234.228 124.704 234.317 124.379 234.317 124.038V122.888C234.263 122.952 234.146 123.01 233.965 123.064C233.788 123.113 233.582 123.158 233.347 123.197C233.116 123.232 232.891 123.264 232.671 123.293C232.454 123.317 232.278 123.339 232.143 123.357C231.817 123.399 231.511 123.468 231.227 123.564C230.947 123.657 230.719 123.797 230.545 123.985C230.375 124.17 230.29 124.422 230.29 124.741C230.29 125.178 230.451 125.509 230.775 125.732C231.101 125.952 231.515 126.062 232.016 126.062ZM244.266 118.818L241.24 127H239.962L236.936 118.818H238.3L240.558 125.338H240.644L242.902 118.818H244.266ZM245.925 127V118.818H247.182V127H245.925ZM246.564 117.455C246.319 117.455 246.108 117.371 245.93 117.204C245.756 117.037 245.669 116.837 245.669 116.602C245.669 116.368 245.756 116.167 245.93 116C246.108 115.833 246.319 115.75 246.564 115.75C246.809 115.75 247.019 115.833 247.193 116C247.37 116.167 247.459 116.368 247.459 116.602C247.459 116.837 247.37 117.037 247.193 117.204C247.019 117.371 246.809 117.455 246.564 117.455ZM252.808 127.17C252.07 127.17 251.422 126.995 250.864 126.643C250.31 126.292 249.877 125.8 249.564 125.168C249.256 124.536 249.101 123.797 249.101 122.952C249.101 122.099 249.256 121.355 249.564 120.72C249.877 120.084 250.31 119.591 250.864 119.239C251.422 118.887 252.07 118.712 252.808 118.712C253.547 118.712 254.193 118.887 254.747 119.239C255.305 119.591 255.738 120.084 256.047 120.72C256.36 121.355 256.516 122.099 256.516 122.952C256.516 123.797 256.36 124.536 256.047 125.168C255.738 125.8 255.305 126.292 254.747 126.643C254.193 126.995 253.547 127.17 252.808 127.17ZM252.808 126.041C253.369 126.041 253.831 125.897 254.193 125.61C254.556 125.322 254.824 124.944 254.998 124.475C255.172 124.006 255.259 123.499 255.259 122.952C255.259 122.405 255.172 121.895 254.998 121.423C254.824 120.951 254.556 120.569 254.193 120.278C253.831 119.987 253.369 119.841 252.808 119.841C252.247 119.841 251.786 119.987 251.423 120.278C251.061 120.569 250.793 120.951 250.619 121.423C250.445 121.895 250.358 122.405 250.358 122.952C250.358 123.499 250.445 124.006 250.619 124.475C250.793 124.944 251.061 125.322 251.423 125.61C251.786 125.897 252.247 126.041 252.808 126.041ZM258.435 127V118.818H259.649V120.054H259.734C259.884 119.649 260.153 119.321 260.544 119.069C260.935 118.816 261.375 118.69 261.865 118.69C261.957 118.69 262.073 118.692 262.211 118.696C262.35 118.699 262.455 118.705 262.526 118.712V119.99C262.483 119.979 262.385 119.963 262.233 119.942C262.084 119.917 261.926 119.905 261.759 119.905C261.361 119.905 261.006 119.988 260.693 120.155C260.384 120.319 260.139 120.546 259.958 120.837C259.781 121.125 259.692 121.453 259.692 121.822V127H258.435Z" fill="#A7C8DF"/>
<path d="M29.0043 149L26.5114 140.818H27.8324L29.6009 147.082H29.6861L31.4332 140.818H32.7756L34.5014 147.061H34.5866L36.3551 140.818H37.6761L35.1832 149H33.9474L32.1577 142.714H32.0298L30.2401 149H29.0043ZM39.3381 149V140.818H40.5952V149H39.3381ZM39.9773 139.455C39.7322 139.455 39.521 139.371 39.3434 139.204C39.1694 139.037 39.0824 138.837 39.0824 138.602C39.0824 138.368 39.1694 138.167 39.3434 138C39.521 137.833 39.7322 137.75 39.9773 137.75C40.2223 137.75 40.4318 137.833 40.6058 138C40.7834 138.167 40.8722 138.368 40.8722 138.602C40.8722 138.837 40.7834 139.037 40.6058 139.204C40.4318 139.371 40.2223 139.455 39.9773 139.455ZM46.4559 140.818V141.884H42.2158V140.818H46.4559ZM43.4516 138.858H44.7087V146.656C44.7087 147.011 44.7602 147.278 44.8632 147.455C44.9697 147.629 45.1047 147.746 45.268 147.807C45.4349 147.864 45.6107 147.892 45.7954 147.892C45.9339 147.892 46.0475 147.885 46.1363 147.871C46.2251 147.853 46.2961 147.839 46.3493 147.828L46.605 148.957C46.5198 148.989 46.4008 149.021 46.2481 149.053C46.0954 149.089 45.9019 149.107 45.6675 149.107C45.3124 149.107 44.9644 149.03 44.6235 148.877C44.2861 148.725 44.0056 148.492 43.7819 148.18C43.5617 147.867 43.4516 147.473 43.4516 146.997V138.858ZM49.7797 144.078V149H48.5226V138.091H49.7797V142.097H49.8863C50.078 141.674 50.3657 141.338 50.7492 141.09C51.1363 140.838 51.6512 140.712 52.2939 140.712C52.8515 140.712 53.3398 140.824 53.7588 141.047C54.1778 141.267 54.5028 141.607 54.7336 142.065C54.968 142.519 55.0851 143.098 55.0851 143.801V149H53.828V143.886C53.828 143.237 53.6594 142.734 53.322 142.379C52.9882 142.02 52.5248 141.841 51.9317 141.841C51.5198 141.841 51.1505 141.928 50.8238 142.102C50.5006 142.276 50.2449 142.53 50.0567 142.864C49.8721 143.197 49.7797 143.602 49.7797 144.078ZM60.7088 149.17C59.9702 149.17 59.3221 148.995 58.7646 148.643C58.2106 148.292 57.7773 147.8 57.4648 147.168C57.1559 146.536 57.0014 145.797 57.0014 144.952C57.0014 144.099 57.1559 143.355 57.4648 142.72C57.7773 142.084 58.2106 141.591 58.7646 141.239C59.3221 140.887 59.9702 140.712 60.7088 140.712C61.4474 140.712 62.0938 140.887 62.6477 141.239C63.2053 141.591 63.6385 142.084 63.9474 142.72C64.2599 143.355 64.4162 144.099 64.4162 144.952C64.4162 145.797 64.2599 146.536 63.9474 147.168C63.6385 147.8 63.2053 148.292 62.6477 148.643C62.0938 148.995 61.4474 149.17 60.7088 149.17ZM60.7088 148.041C61.2699 148.041 61.7315 147.897 62.0938 147.61C62.456 147.322 62.7241 146.944 62.8981 146.475C63.0721 146.006 63.1591 145.499 63.1591 144.952C63.1591 144.405 63.0721 143.895 62.8981 143.423C62.7241 142.951 62.456 142.569 62.0938 142.278C61.7315 141.987 61.2699 141.841 60.7088 141.841C60.1477 141.841 59.6861 141.987 59.3239 142.278C58.9616 142.569 58.6935 142.951 58.5195 143.423C58.3455 143.895 58.2585 144.405 58.2585 144.952C58.2585 145.499 58.3455 146.006 58.5195 146.475C58.6935 146.944 58.9616 147.322 59.3239 147.61C59.6861 147.897 60.1477 148.041 60.7088 148.041ZM71.4914 145.655V140.818H72.7485V149H71.4914V147.615H71.4062C71.2144 148.031 70.9161 148.384 70.5113 148.675C70.1064 148.963 69.5951 149.107 68.9772 149.107C68.4658 149.107 68.0113 148.995 67.6135 148.771C67.2158 148.544 66.9033 148.203 66.676 147.748C66.4488 147.29 66.3351 146.713 66.3351 146.017V140.818H67.5922V145.932C67.5922 146.528 67.7591 147.004 68.093 147.359C68.4303 147.714 68.86 147.892 69.382 147.892C69.6945 147.892 70.0123 147.812 70.3355 147.652C70.6622 147.493 70.9356 147.248 71.1558 146.917C71.3795 146.587 71.4914 146.166 71.4914 145.655ZM78.6092 140.818V141.884H74.3691V140.818H78.6092ZM75.6049 138.858H76.862V146.656C76.862 147.011 76.9135 147.278 77.0165 147.455C77.123 147.629 77.258 147.746 77.4213 147.807C77.5882 147.864 77.764 147.892 77.9487 147.892C78.0872 147.892 78.2008 147.885 78.2896 147.871C78.3784 147.853 78.4494 147.839 78.5027 147.828L78.7583 148.957C78.6731 148.989 78.5542 149.021 78.4015 149.053C78.2488 149.089 78.0552 149.107 77.8208 149.107C77.4657 149.107 77.1177 149.03 76.7768 148.877C76.4395 148.725 76.1589 148.492 75.9352 148.18C75.715 147.867 75.6049 147.473 75.6049 146.997V138.858ZM84.7189 149V140.818H85.9334V142.054H86.0186C86.1678 141.649 86.4377 141.321 86.8283 141.069C87.2189 140.816 87.6593 140.69 88.1493 140.69C88.2417 140.69 88.3571 140.692 88.4956 140.696C88.6341 140.699 88.7388 140.705 88.8098 140.712V141.99C88.7672 141.979 88.6696 141.963 88.5169 141.942C88.3677 141.917 88.2097 141.905 88.0428 141.905C87.6451 141.905 87.29 141.988 86.9775 142.155C86.6685 142.319 86.4235 142.546 86.2424 142.837C86.0648 143.125 85.976 143.453 85.976 143.822V149H84.7189ZM93.4814 149.17C92.693 149.17 92.013 148.996 91.4412 148.648C90.873 148.297 90.4345 147.807 90.1255 147.178C89.8201 146.546 89.6674 145.811 89.6674 144.973C89.6674 144.135 89.8201 143.396 90.1255 142.757C90.4345 142.114 90.8642 141.614 91.4146 141.255C91.9686 140.893 92.6149 140.712 93.3535 140.712C93.7797 140.712 94.2005 140.783 94.6159 140.925C95.0314 141.067 95.4096 141.298 95.7505 141.617C96.0914 141.933 96.3631 142.352 96.5655 142.874C96.7679 143.396 96.8691 144.039 96.8691 144.803V145.335H90.5623V144.249H95.5907C95.5907 143.787 95.4984 143.375 95.3137 143.013C95.1326 142.651 94.8734 142.365 94.536 142.155C94.2022 141.946 93.8081 141.841 93.3535 141.841C92.8528 141.841 92.4196 141.965 92.0538 142.214C91.6916 142.459 91.4128 142.778 91.2175 143.173C91.0222 143.567 90.9245 143.989 90.9245 144.44V145.165C90.9245 145.783 91.0311 146.306 91.2441 146.736C91.4608 147.162 91.7608 147.487 92.1444 147.711C92.5279 147.931 92.9735 148.041 93.4814 148.041C93.8116 148.041 94.1099 147.995 94.3762 147.903C94.6461 147.807 94.8787 147.665 95.074 147.477C95.2694 147.285 95.4203 147.047 95.5268 146.763L96.7413 147.104C96.6135 147.516 96.3986 147.878 96.0968 148.19C95.7949 148.499 95.4221 148.741 94.9782 148.915C94.5343 149.085 94.0353 149.17 93.4814 149.17ZM98.9519 149V138.091H100.209V142.118H100.316C100.408 141.976 100.536 141.795 100.699 141.575C100.866 141.351 101.104 141.152 101.413 140.978C101.725 140.8 102.148 140.712 102.681 140.712C103.369 140.712 103.977 140.884 104.502 141.228C105.028 141.573 105.438 142.061 105.733 142.693C106.028 143.325 106.175 144.071 106.175 144.93C106.175 145.797 106.028 146.548 105.733 147.184C105.438 147.816 105.03 148.306 104.508 148.654C103.986 148.998 103.384 149.17 102.702 149.17C102.176 149.17 101.756 149.083 101.439 148.909C101.123 148.732 100.88 148.531 100.71 148.308C100.539 148.08 100.408 147.892 100.316 147.743H100.166V149H98.9519ZM100.188 144.909C100.188 145.527 100.278 146.072 100.459 146.544C100.64 147.013 100.905 147.381 101.253 147.647C101.601 147.91 102.027 148.041 102.531 148.041C103.057 148.041 103.496 147.903 103.847 147.626C104.202 147.345 104.469 146.969 104.646 146.496C104.827 146.021 104.918 145.491 104.918 144.909C104.918 144.334 104.829 143.815 104.651 143.354C104.477 142.888 104.213 142.521 103.858 142.251C103.506 141.978 103.064 141.841 102.531 141.841C102.02 141.841 101.59 141.971 101.242 142.23C100.894 142.485 100.632 142.844 100.454 143.306C100.276 143.764 100.188 144.298 100.188 144.909ZM113.254 145.655V140.818H114.511V149H113.254V147.615H113.169C112.977 148.031 112.679 148.384 112.274 148.675C111.869 148.963 111.358 149.107 110.74 149.107C110.229 149.107 109.774 148.995 109.376 148.771C108.979 148.544 108.666 148.203 108.439 147.748C108.211 147.29 108.098 146.713 108.098 146.017V140.818H109.355V145.932C109.355 146.528 109.522 147.004 109.856 147.359C110.193 147.714 110.623 147.892 111.145 147.892C111.457 147.892 111.775 147.812 112.098 147.652C112.425 147.493 112.698 147.248 112.919 146.917C113.142 146.587 113.254 146.166 113.254 145.655ZM116.814 149V140.818H118.071V149H116.814ZM117.453 139.455C117.208 139.455 116.997 139.371 116.819 139.204C116.645 139.037 116.558 138.837 116.558 138.602C116.558 138.368 116.645 138.167 116.819 138C116.997 137.833 117.208 137.75 117.453 137.75C117.698 137.75 117.907 137.833 118.081 138C118.259 138.167 118.348 138.368 118.348 138.602C118.348 138.837 118.259 139.037 118.081 139.204C117.907 139.371 117.698 139.455 117.453 139.455ZM121.63 138.091V149H120.373V138.091H121.63ZM127.022 149.17C126.34 149.17 125.739 148.998 125.217 148.654C124.695 148.306 124.286 147.816 123.991 147.184C123.697 146.548 123.549 145.797 123.549 144.93C123.549 144.071 123.697 143.325 123.991 142.693C124.286 142.061 124.696 141.573 125.222 141.228C125.747 140.884 126.355 140.712 127.044 140.712C127.576 140.712 127.997 140.8 128.306 140.978C128.619 141.152 128.856 141.351 129.02 141.575C129.187 141.795 129.316 141.976 129.409 142.118H129.515V138.091H130.772V149H129.558V147.743H129.409C129.316 147.892 129.185 148.08 129.014 148.308C128.844 148.531 128.601 148.732 128.285 148.909C127.969 149.083 127.548 149.17 127.022 149.17ZM127.193 148.041C127.697 148.041 128.123 147.91 128.471 147.647C128.819 147.381 129.084 147.013 129.265 146.544C129.446 146.072 129.536 145.527 129.536 144.909C129.536 144.298 129.448 143.764 129.27 143.306C129.093 142.844 128.83 142.485 128.482 142.23C128.134 141.971 127.704 141.841 127.193 141.841C126.66 141.841 126.216 141.978 125.861 142.251C125.509 142.521 125.245 142.888 125.067 143.354C124.893 143.815 124.806 144.334 124.806 144.909C124.806 145.491 124.895 146.021 125.073 146.496C125.254 146.969 125.52 147.345 125.872 147.626C126.227 147.903 126.667 148.041 127.193 148.041ZM133.249 149V140.818H134.506V149H133.249ZM133.888 139.455C133.643 139.455 133.432 139.371 133.255 139.204C133.081 139.037 132.994 138.837 132.994 138.602C132.994 138.368 133.081 138.167 133.255 138C133.432 137.833 133.643 137.75 133.888 137.75C134.133 137.75 134.343 137.833 134.517 138C134.695 138.167 134.783 138.368 134.783 138.602C134.783 138.837 134.695 139.037 134.517 139.204C134.343 139.371 134.133 139.455 133.888 139.455ZM138.066 144.078V149H136.809V140.818H138.023V142.097H138.13C138.322 141.681 138.613 141.347 139.003 141.095C139.394 140.839 139.898 140.712 140.516 140.712C141.07 140.712 141.555 140.825 141.97 141.053C142.386 141.276 142.709 141.617 142.94 142.075C143.171 142.53 143.286 143.105 143.286 143.801V149H142.029V143.886C142.029 143.244 141.862 142.743 141.528 142.384C141.194 142.022 140.736 141.841 140.154 141.841C139.753 141.841 139.394 141.928 139.078 142.102C138.765 142.276 138.519 142.53 138.338 142.864C138.156 143.197 138.066 143.602 138.066 144.078ZM148.886 152.239C148.278 152.239 147.756 152.161 147.32 152.004C146.883 151.852 146.519 151.649 146.228 151.397C145.94 151.148 145.711 150.882 145.541 150.598L146.542 149.895C146.656 150.044 146.799 150.214 146.973 150.406C147.147 150.602 147.385 150.77 147.687 150.912C147.993 151.058 148.392 151.131 148.886 151.131C149.546 151.131 150.091 150.971 150.521 150.651C150.951 150.332 151.166 149.831 151.166 149.149V147.487H151.059C150.967 147.636 150.835 147.821 150.665 148.041C150.498 148.258 150.256 148.451 149.94 148.622C149.628 148.789 149.205 148.872 148.673 148.872C148.012 148.872 147.419 148.716 146.894 148.403C146.372 148.091 145.958 147.636 145.652 147.04C145.351 146.443 145.2 145.719 145.2 144.866C145.2 144.028 145.347 143.299 145.642 142.677C145.937 142.052 146.347 141.569 146.872 141.228C147.398 140.884 148.005 140.712 148.694 140.712C149.227 140.712 149.649 140.8 149.962 140.978C150.278 141.152 150.519 141.351 150.686 141.575C150.857 141.795 150.988 141.976 151.08 142.118H151.208V140.818H152.423V149.234C152.423 149.938 152.263 150.509 151.943 150.95C151.627 151.393 151.201 151.718 150.665 151.924C150.132 152.134 149.539 152.239 148.886 152.239ZM148.843 147.743C149.347 147.743 149.774 147.627 150.122 147.397C150.47 147.166 150.734 146.834 150.915 146.401C151.096 145.967 151.187 145.449 151.187 144.845C151.187 144.256 151.098 143.735 150.921 143.284C150.743 142.833 150.48 142.48 150.132 142.224C149.784 141.969 149.354 141.841 148.843 141.841C148.31 141.841 147.867 141.976 147.511 142.246C147.16 142.516 146.895 142.878 146.718 143.332C146.544 143.787 146.457 144.291 146.457 144.845C146.457 145.413 146.546 145.916 146.723 146.353C146.904 146.786 147.171 147.127 147.522 147.375C147.877 147.62 148.318 147.743 148.843 147.743ZM162.501 140.818V141.884H158.261V140.818H162.501ZM159.497 138.858H160.754V146.656C160.754 147.011 160.805 147.278 160.908 147.455C161.015 147.629 161.15 147.746 161.313 147.807C161.48 147.864 161.656 147.892 161.84 147.892C161.979 147.892 162.092 147.885 162.181 147.871C162.27 147.853 162.341 147.839 162.394 147.828L162.65 148.957C162.565 148.989 162.446 149.021 162.293 149.053C162.14 149.089 161.947 149.107 161.712 149.107C161.357 149.107 161.009 149.03 160.668 148.877C160.331 148.725 160.051 148.492 159.827 148.18C159.607 147.867 159.497 147.473 159.497 146.997V138.858ZM165.825 144.078V149H164.568V138.091H165.825V142.097H165.931C166.123 141.674 166.411 141.338 166.794 141.09C167.181 140.838 167.696 140.712 168.339 140.712C168.896 140.712 169.385 140.824 169.804 141.047C170.223 141.267 170.548 141.607 170.778 142.065C171.013 142.519 171.13 143.098 171.13 143.801V149H169.873V143.886C169.873 143.237 169.704 142.734 169.367 142.379C169.033 142.02 168.57 141.841 167.977 141.841C167.565 141.841 167.195 141.928 166.869 142.102C166.546 142.276 166.29 142.53 166.102 142.864C165.917 143.197 165.825 143.602 165.825 144.078ZM176.86 149.17C176.072 149.17 175.392 148.996 174.82 148.648C174.252 148.297 173.813 147.807 173.504 147.178C173.199 146.546 173.046 145.811 173.046 144.973C173.046 144.135 173.199 143.396 173.504 142.757C173.813 142.114 174.243 141.614 174.794 141.255C175.347 140.893 175.994 140.712 176.732 140.712C177.159 140.712 177.579 140.783 177.995 140.925C178.41 141.067 178.789 141.298 179.129 141.617C179.47 141.933 179.742 142.352 179.944 142.874C180.147 143.396 180.248 144.039 180.248 144.803V145.335H173.941V144.249H178.97C178.97 143.787 178.877 143.375 178.693 143.013C178.512 142.651 178.252 142.365 177.915 142.155C177.581 141.946 177.187 141.841 176.732 141.841C176.232 141.841 175.798 141.965 175.433 142.214C175.07 142.459 174.792 142.778 174.596 143.173C174.401 143.567 174.303 143.989 174.303 144.44V145.165C174.303 145.783 174.41 146.306 174.623 146.736C174.84 147.162 175.14 147.487 175.523 147.711C175.907 147.931 176.352 148.041 176.86 148.041C177.191 148.041 177.489 147.995 177.755 147.903C178.025 147.807 178.258 147.665 178.453 147.477C178.648 147.285 178.799 147.047 178.906 146.763L180.12 147.104C179.992 147.516 179.778 147.878 179.476 148.19C179.174 148.499 178.801 148.741 178.357 148.915C177.913 149.085 177.414 149.17 176.86 149.17ZM186.379 152.068V140.818H187.594V142.118H187.743C187.835 141.976 187.963 141.795 188.126 141.575C188.293 141.351 188.531 141.152 188.84 140.978C189.153 140.8 189.575 140.712 190.108 140.712C190.797 140.712 191.404 140.884 191.93 141.228C192.455 141.573 192.865 142.061 193.16 142.693C193.455 143.325 193.602 144.071 193.602 144.93C193.602 145.797 193.455 146.548 193.16 147.184C192.865 147.816 192.457 148.306 191.935 148.654C191.413 148.998 190.811 149.17 190.129 149.17C189.604 149.17 189.183 149.083 188.867 148.909C188.551 148.732 188.307 148.531 188.137 148.308C187.966 148.08 187.835 147.892 187.743 147.743H187.636V152.068H186.379ZM187.615 144.909C187.615 145.527 187.705 146.072 187.887 146.544C188.068 147.013 188.332 147.381 188.68 147.647C189.028 147.91 189.454 148.041 189.959 148.041C190.484 148.041 190.923 147.903 191.274 147.626C191.629 147.345 191.896 146.969 192.073 146.496C192.254 146.021 192.345 145.491 192.345 144.909C192.345 144.334 192.256 143.815 192.079 143.354C191.905 142.888 191.64 142.521 191.285 142.251C190.933 141.978 190.491 141.841 189.959 141.841C189.447 141.841 189.018 141.971 188.67 142.23C188.322 142.485 188.059 142.844 187.881 143.306C187.704 143.764 187.615 144.298 187.615 144.909ZM196.777 138.091V149H195.52V138.091H196.777ZM204.236 145.655V140.818H205.493V149H204.236V147.615H204.15C203.959 148.031 203.66 148.384 203.255 148.675C202.851 148.963 202.339 149.107 201.721 149.107C201.21 149.107 200.755 148.995 200.358 148.771C199.96 148.544 199.647 148.203 199.42 147.748C199.193 147.29 199.079 146.713 199.079 146.017V140.818H200.336V145.932C200.336 146.528 200.503 147.004 200.837 147.359C201.174 147.714 201.604 147.892 202.126 147.892C202.439 147.892 202.756 147.812 203.08 147.652C203.406 147.493 203.68 147.248 203.9 146.917C204.124 146.587 204.236 146.166 204.236 145.655ZM207.795 149V140.818H209.01V142.097H209.116C209.287 141.66 209.562 141.321 209.942 141.079C210.322 140.834 210.778 140.712 211.311 140.712C211.85 140.712 212.3 140.834 212.658 141.079C213.021 141.321 213.303 141.66 213.505 142.097H213.591C213.8 141.674 214.114 141.338 214.533 141.09C214.952 140.838 215.455 140.712 216.041 140.712C216.772 140.712 217.371 140.941 217.836 141.399C218.301 141.853 218.534 142.562 218.534 143.524V149H217.277V143.524C217.277 142.92 217.112 142.489 216.781 142.23C216.451 141.971 216.062 141.841 215.615 141.841C215.039 141.841 214.594 142.015 214.278 142.363C213.962 142.707 213.804 143.144 213.804 143.673V149H212.525V143.396C212.525 142.931 212.374 142.556 212.072 142.272C211.771 141.985 211.382 141.841 210.906 141.841C210.579 141.841 210.274 141.928 209.99 142.102C209.709 142.276 209.482 142.517 209.308 142.826C209.137 143.132 209.052 143.485 209.052 143.886V149H207.795ZM221.003 149V138.091H222.26V142.118H222.366C222.459 141.976 222.586 141.795 222.75 141.575C222.917 141.351 223.155 141.152 223.464 140.978C223.776 140.8 224.199 140.712 224.731 140.712C225.42 140.712 226.028 140.884 226.553 141.228C227.079 141.573 227.489 142.061 227.784 142.693C228.078 143.325 228.226 144.071 228.226 144.93C228.226 145.797 228.078 146.548 227.784 147.184C227.489 147.816 227.08 148.306 226.558 148.654C226.036 148.998 225.434 149.17 224.753 149.17C224.227 149.17 223.806 149.083 223.49 148.909C223.174 148.732 222.931 148.531 222.76 148.308C222.59 148.08 222.459 147.892 222.366 147.743H222.217V149H221.003ZM222.238 144.909C222.238 145.527 222.329 146.072 222.51 146.544C222.691 147.013 222.956 147.381 223.304 147.647C223.652 147.91 224.078 148.041 224.582 148.041C225.108 148.041 225.546 147.903 225.898 147.626C226.253 147.345 226.519 146.969 226.697 146.496C226.878 146.021 226.969 145.491 226.969 144.909C226.969 144.334 226.88 143.815 226.702 143.354C226.528 142.888 226.264 142.521 225.909 142.251C225.557 141.978 225.115 141.841 224.582 141.841C224.071 141.841 223.641 141.971 223.293 142.23C222.945 142.485 222.682 142.844 222.505 143.306C222.327 143.764 222.238 144.298 222.238 144.909ZM230.149 149V140.818H231.406V149H230.149ZM230.788 139.455C230.543 139.455 230.331 139.371 230.154 139.204C229.98 139.037 229.893 138.837 229.893 138.602C229.893 138.368 229.98 138.167 230.154 138C230.331 137.833 230.543 137.75 230.788 137.75C231.033 137.75 231.242 137.833 231.416 138C231.594 138.167 231.683 138.368 231.683 138.602C231.683 138.837 231.594 139.037 231.416 139.204C231.242 139.371 231.033 139.455 230.788 139.455ZM234.965 144.078V149H233.708V140.818H234.923V142.097H235.029C235.221 141.681 235.512 141.347 235.903 141.095C236.293 140.839 236.798 140.712 237.416 140.712C237.97 140.712 238.454 140.825 238.87 141.053C239.285 141.276 239.608 141.617 239.839 142.075C240.07 142.53 240.185 143.105 240.185 143.801V149H238.928V143.886C238.928 143.244 238.761 142.743 238.428 142.384C238.094 142.022 237.636 141.841 237.053 141.841C236.652 141.841 236.293 141.928 235.977 142.102C235.665 142.276 235.418 142.53 235.237 142.864C235.056 143.197 234.965 143.602 234.965 144.078ZM245.785 152.239C245.178 152.239 244.656 152.161 244.219 152.004C243.782 151.852 243.418 151.649 243.127 151.397C242.839 151.148 242.61 150.882 242.44 150.598L243.441 149.895C243.555 150.044 243.699 150.214 243.873 150.406C244.047 150.602 244.285 150.77 244.587 150.912C244.892 151.058 245.292 151.131 245.785 151.131C246.446 151.131 246.991 150.971 247.42 150.651C247.85 150.332 248.065 149.831 248.065 149.149V147.487H247.958C247.866 147.636 247.735 147.821 247.564 148.041C247.397 148.258 247.156 148.451 246.84 148.622C246.527 148.789 246.105 148.872 245.572 148.872C244.912 148.872 244.319 148.716 243.793 148.403C243.271 148.091 242.857 147.636 242.552 147.04C242.25 146.443 242.099 145.719 242.099 144.866C242.099 144.028 242.246 143.299 242.541 142.677C242.836 142.052 243.246 141.569 243.772 141.228C244.297 140.884 244.904 140.712 245.593 140.712C246.126 140.712 246.549 140.8 246.861 140.978C247.177 141.152 247.419 141.351 247.586 141.575C247.756 141.795 247.887 141.976 247.98 142.118H248.108V140.818H249.322V149.234C249.322 149.938 249.162 150.509 248.843 150.95C248.527 151.393 248.1 151.718 247.564 151.924C247.032 152.134 246.439 152.239 245.785 152.239ZM245.743 147.743C246.247 147.743 246.673 147.627 247.021 147.397C247.369 147.166 247.634 146.834 247.815 146.401C247.996 145.967 248.086 145.449 248.086 144.845C248.086 144.256 247.998 143.735 247.82 143.284C247.642 142.833 247.38 142.48 247.032 142.224C246.684 141.969 246.254 141.841 245.743 141.841C245.21 141.841 244.766 141.976 244.411 142.246C244.059 142.516 243.795 142.878 243.617 143.332C243.443 143.787 243.356 144.291 243.356 144.845C243.356 145.413 243.445 145.916 243.623 146.353C243.804 146.786 244.07 147.127 244.422 147.375C244.777 147.62 245.217 147.743 245.743 147.743ZM252.539 149.085C252.277 149.085 252.051 148.991 251.863 148.803C251.675 148.615 251.581 148.389 251.581 148.126C251.581 147.864 251.675 147.638 251.863 147.45C252.051 147.262 252.277 147.168 252.539 147.168C252.802 147.168 253.028 147.262 253.216 147.45C253.404 147.638 253.498 147.864 253.498 148.126C253.498 148.3 253.454 148.46 253.365 148.606C253.28 148.751 253.164 148.869 253.019 148.957C252.877 149.043 252.717 149.085 252.539 149.085Z" fill="#A7C8DF"/>
<path d="M334 164H377M377 164L395 146M377 164L395 182" stroke="#7DD3FC" stroke-width="2" stroke-linecap="round" stroke-linejoin="round"/>
<path d="M327 145H306C301.582 145 298 148.582 298 153V175C298 179.418 301.582 183 306 183H327C331.418 183 335 179.418 335 175V153C335 148.582 331.418 145 327 145Z" fill="#0EA5E9" fill-opacity="0.24" stroke="#7DD3FC"/>
<path d="M446 126H403C398.582 126 395 129.582 395 134V156C395 160.418 398.582 164 403 164H446C450.418 164 454 160.418 454 156V134C454 129.582 450.418 126 446 126Z" fill="#0EA5E9" fill-opacity="0.18" stroke="#7DD3FC"/>
<path d="M446 165H403C398.582 165 395 168.582 395 173V195C395 199.418 398.582 203 403 203H446C450.418 203 454 199.418 454 195V173C454 168.582 450.418 165 446 165Z" fill="#0EA5E9" fill-opacity="0.12" stroke="#7DD3FC"/>
<path d="M26.8217 207V197.545H33.1925V199.194H28.8207V201.446H32.8647V203.094H28.8207V205.352H33.2109V207H26.8217ZM36.656 197.545L38.5626 200.768H38.6365L40.5523 197.545H42.8097L39.9244 202.273L42.8744 207H40.5754L38.6365 203.773H38.5626L36.6237 207H34.3339L37.2931 202.273L34.3893 197.545H36.656ZM44.0747 207V197.545H47.8048C48.5219 197.545 49.1328 197.682 49.6375 197.956C50.1423 198.227 50.527 198.604 50.7916 199.087C51.0594 199.567 51.1933 200.121 51.1933 200.749C51.1933 201.377 51.0579 201.931 50.787 202.411C50.5162 202.891 50.1238 203.265 49.6098 203.533C49.0989 203.801 48.4803 203.935 47.754 203.935H45.3765V202.333H47.4308C47.8155 202.333 48.1325 202.267 48.3818 202.134C48.6342 201.999 48.8219 201.813 48.945 201.576C49.0712 201.336 49.1343 201.06 49.1343 200.749C49.1343 200.435 49.0712 200.161 48.945 199.928C48.8219 199.691 48.6342 199.507 48.3818 199.378C48.1295 199.246 47.8094 199.18 47.4216 199.18H46.0736V207H44.0747ZM52.4917 207V197.545H54.4906V205.352H58.5439V207H52.4917ZM68.1877 202.273C68.1877 203.304 67.9922 204.181 67.6014 204.904C67.2136 205.627 66.6842 206.18 66.0133 206.561C65.3455 206.94 64.5945 207.129 63.7605 207.129C62.9203 207.129 62.1663 206.938 61.4984 206.557C60.8306 206.175 60.3027 205.623 59.915 204.9C59.5272 204.176 59.3333 203.301 59.3333 202.273C59.3333 201.242 59.5272 200.365 59.915 199.641C60.3027 198.918 60.8306 198.367 61.4984 197.989C62.1663 197.607 62.9203 197.416 63.7605 197.416C64.5945 197.416 65.3455 197.607 66.0133 197.989C66.6842 198.367 67.2136 198.918 67.6014 199.641C67.9922 200.365 68.1877 201.242 68.1877 202.273ZM66.161 202.273C66.161 201.605 66.061 201.042 65.861 200.583C65.664 200.125 65.3855 199.777 65.0254 199.54C64.6653 199.303 64.2437 199.184 63.7605 199.184C63.2773 199.184 62.8556 199.303 62.4956 199.54C62.1355 199.777 61.8554 200.125 61.6554 200.583C61.4584 201.042 61.3599 201.605 61.3599 202.273C61.3599 202.941 61.4584 203.504 61.6554 203.962C61.8554 204.421 62.1355 204.769 62.4956 205.006C62.8556 205.243 63.2773 205.361 63.7605 205.361C64.2437 205.361 64.6653 205.243 65.0254 205.006C65.3855 204.769 65.664 204.421 65.861 203.962C66.061 203.504 66.161 202.941 66.161 202.273ZM69.6684 207V197.545H73.3985C74.1125 197.545 74.7219 197.673 75.2267 197.929C75.7345 198.181 76.1207 198.54 76.3854 199.004C76.6531 199.466 76.787 200.009 76.787 200.634C76.787 201.262 76.6516 201.802 76.3808 202.254C76.1099 202.704 75.7175 203.048 75.2036 203.288C74.6927 203.528 74.0741 203.648 73.3477 203.648H70.8502V202.042H73.0246C73.4062 202.042 73.7232 201.99 73.9756 201.885C74.228 201.78 74.4157 201.623 74.5388 201.414C74.665 201.205 74.7281 200.945 74.7281 200.634C74.7281 200.32 74.665 200.055 74.5388 199.84C74.4157 199.624 74.2264 199.461 73.971 199.35C73.7186 199.237 73.4001 199.18 73.0154 199.18H71.6673V207H69.6684ZM74.7742 202.697L77.124 207H74.9173L72.6183 202.697H74.7742ZM78.1997 207V197.545H84.5704V199.194H80.1986V201.446H84.2426V203.094H80.1986V205.352H84.5889V207H78.1997ZM94.2973 200.265C94.2604 199.892 94.1019 199.603 93.8218 199.397C93.5418 199.19 93.1617 199.087 92.6816 199.087C92.3553 199.087 92.0799 199.134 91.8552 199.226C91.6305 199.315 91.4582 199.44 91.3382 199.6C91.2212 199.76 91.1627 199.941 91.1627 200.145C91.1566 200.314 91.192 200.462 91.2689 200.588C91.3489 200.714 91.4582 200.823 91.5967 200.915C91.7352 201.005 91.8952 201.083 92.0768 201.151C92.2584 201.216 92.4523 201.271 92.6585 201.317L93.5079 201.52C93.9203 201.613 94.2989 201.736 94.6436 201.89C94.9883 202.043 95.2868 202.233 95.5392 202.457C95.7915 202.682 95.9869 202.947 96.1254 203.251C96.267 203.556 96.3393 203.905 96.3424 204.299C96.3393 204.878 96.1916 205.38 95.8992 205.804C95.6099 206.226 95.1914 206.554 94.6436 206.788C94.0988 207.018 93.4417 207.134 92.6723 207.134C91.9091 207.134 91.2443 207.017 90.678 206.783C90.1148 206.549 89.6747 206.203 89.3577 205.744C89.0438 205.283 88.8791 204.712 88.8637 204.032H90.798C90.8196 204.349 90.9104 204.613 91.0704 204.826C91.2335 205.035 91.4505 205.193 91.7213 205.301C91.9952 205.406 92.3045 205.458 92.6492 205.458C92.9878 205.458 93.2817 205.409 93.531 205.31C93.7834 205.212 93.9788 205.075 94.1173 204.9C94.2558 204.724 94.325 204.522 94.325 204.295C94.325 204.082 94.2619 203.904 94.1357 203.759C94.0126 203.615 93.8311 203.491 93.591 203.39C93.354 203.288 93.0632 203.196 92.7185 203.113L91.689 202.854C90.8919 202.661 90.2625 202.357 89.8009 201.945C89.3392 201.533 89.1099 200.977 89.113 200.278C89.1099 199.706 89.2623 199.206 89.57 198.778C89.8809 198.35 90.3071 198.016 90.8488 197.776C91.3905 197.536 92.006 197.416 92.6954 197.416C93.3971 197.416 94.0096 197.536 94.5328 197.776C95.059 198.016 95.4684 198.35 95.7607 198.778C96.0531 199.206 96.2039 199.701 96.2132 200.265H94.2973ZM97.133 197.545H99.372L101.528 201.617H101.62L103.776 197.545H106.015L102.567 203.658V207H100.581V203.658L97.133 197.545ZM112.236 200.265C112.199 199.892 112.04 199.603 111.76 199.397C111.48 199.19 111.1 199.087 110.62 199.087C110.294 199.087 110.018 199.134 109.794 199.226C109.569 199.315 109.397 199.44 109.277 199.6C109.16 199.76 109.101 199.941 109.101 200.145C109.095 200.314 109.13 200.462 109.207 200.588C109.287 200.714 109.397 200.823 109.535 200.915C109.674 201.005 109.834 201.083 110.015 201.151C110.197 201.216 110.391 201.271 110.597 201.317L111.446 201.52C111.859 201.613 112.237 201.736 112.582 201.89C112.927 202.043 113.225 202.233 113.478 202.457C113.73 202.682 113.925 202.947 114.064 203.251C114.205 203.556 114.278 203.905 114.281 204.299C114.278 204.878 114.13 205.38 113.838 205.804C113.548 206.226 113.13 206.554 112.582 206.788C112.037 207.018 111.38 207.134 110.611 207.134C109.848 207.134 109.183 207.017 108.616 206.783C108.053 206.549 107.613 206.203 107.296 205.744C106.982 205.283 106.818 204.712 106.802 204.032H108.737C108.758 204.349 108.849 204.613 109.009 204.826C109.172 205.035 109.389 205.193 109.66 205.301C109.934 205.406 110.243 205.458 110.588 205.458C110.926 205.458 111.22 205.409 111.469 205.31C111.722 205.212 111.917 205.075 112.056 204.9C112.194 204.724 112.263 204.522 112.263 204.295C112.263 204.082 112.2 203.904 112.074 203.759C111.951 203.615 111.77 203.491 111.529 203.39C111.292 203.288 111.002 203.196 110.657 203.113L109.627 202.854C108.83 202.661 108.201 202.357 107.739 201.945C107.278 201.533 107.048 200.977 107.051 200.278C107.048 199.706 107.201 199.206 107.509 198.778C107.819 198.35 108.246 198.016 108.787 197.776C109.329 197.536 109.944 197.416 110.634 197.416C111.336 197.416 111.948 197.536 112.471 197.776C112.998 198.016 113.407 198.35 113.699 198.778C113.992 199.206 114.142 199.701 114.152 200.265H112.236ZM115.265 199.194V197.545H123.03V199.194H120.136V207H118.16V199.194H115.265ZM124.309 207V197.545H130.68V199.194H126.308V201.446H130.352V203.094H126.308V205.352H130.698V207H124.309ZM132.269 197.545H134.734L137.338 203.898H137.449L140.052 197.545H142.518V207H140.579V200.846H140.5L138.053 206.954H136.733L134.286 200.823H134.208V207H132.269V197.545ZM149.293 200.265C149.256 199.892 149.098 199.603 148.818 199.397C148.538 199.19 148.158 199.087 147.678 199.087C147.351 199.087 147.076 199.134 146.851 199.226C146.627 199.315 146.454 199.44 146.334 199.6C146.217 199.76 146.159 199.941 146.159 200.145C146.153 200.314 146.188 200.462 146.265 200.588C146.345 200.714 146.454 200.823 146.593 200.915C146.731 201.005 146.891 201.083 147.073 201.151C147.254 201.216 147.448 201.271 147.655 201.317L148.504 201.52C148.916 201.613 149.295 201.736 149.64 201.89C149.984 202.043 150.283 202.233 150.535 202.457C150.788 202.682 150.983 202.947 151.122 203.251C151.263 203.556 151.335 203.905 151.339 204.299C151.335 204.878 151.188 205.38 150.895 205.804C150.606 206.226 150.187 206.554 149.64 206.788C149.095 207.018 148.438 207.134 147.668 207.134C146.905 207.134 146.24 207.017 145.674 206.783C145.111 206.549 144.671 206.203 144.354 205.744C144.04 205.283 143.875 204.712 143.86 204.032H145.794C145.816 204.349 145.906 204.613 146.066 204.826C146.23 205.035 146.447 205.193 146.717 205.301C146.991 205.406 147.301 205.458 147.645 205.458C147.984 205.458 148.278 205.409 148.527 205.31C148.779 205.212 148.975 205.075 149.113 204.9C149.252 204.724 149.321 204.522 149.321 204.295C149.321 204.082 149.258 203.904 149.132 203.759C149.009 203.615 148.827 203.491 148.587 203.39C148.35 203.288 148.059 203.196 147.715 203.113L146.685 202.854C145.888 202.661 145.259 202.357 144.797 201.945C144.335 201.533 144.106 200.977 144.109 200.278C144.106 199.706 144.258 199.206 144.566 198.778C144.877 198.35 145.303 198.016 145.845 197.776C146.387 197.536 147.002 197.416 147.691 197.416C148.393 197.416 149.006 197.536 149.529 197.776C150.055 198.016 150.464 198.35 150.757 198.778C151.049 199.206 151.2 199.701 151.209 200.265H149.293Z" fill="#7DD3FC"/>
</g>
<defs>
<linearGradient id="paint0_linear_1893_166" x1="20" y1="9.99999" x2="466" y2="236" gradientUnits="userSpaceOnUse">
<stop stop-color="#082039"/>
<stop offset="1" stop-color="#0B3252"/>
</linearGradient>
<clipPath id="clip0_1893_166">
<rect width="480" height="240" fill="white"/>
</clipPath>
</defs>
</svg>
